<?xml version="1.0" encoding="UTF-8" standalone="no"?>
<!-- Created with Inkscape (http://www.inkscape.org/) -->

<svg
   xmlns:dc="http://purl.org/dc/elements/1.1/"
   xmlns:cc="http://creativecommons.org/ns#"
   xmlns:rdf="http://www.w3.org/1999/02/22-rdf-syntax-ns#"
   xmlns:svg="http://www.w3.org/2000/svg"
   xmlns="http://www.w3.org/2000/svg"
   xmlns:sodipodi="http://sodipodi.sourceforge.net/DTD/sodipodi-0.dtd"
   xmlns:inkscape="http://www.inkscape.org/namespaces/inkscape"
   width="150"
   height="150"
   viewBox="0 0 39.6875 39.6875"
   version="1.1"
   id="svg2517"
   sodipodi:docname="logo.svg"
   inkscape:version="0.92.4 5da689c313, 2019-01-14">
  <defs
     id="defs2511" />
  <sodipodi:namedview
     id="base"
     pagecolor="#ffffff"
     bordercolor="#666666"
     borderopacity="1.0"
     inkscape:pageopacity="0.0"
     inkscape:pageshadow="2"
     inkscape:zoom="1.979899"
     inkscape:cx="49.942364"
     inkscape:cy="102.24758"
     inkscape:document-units="mm"
     inkscape:current-layer="layer1"
     showgrid="false"
     fit-margin-top="0"
     fit-margin-left="0"
     fit-margin-right="0"
     fit-margin-bottom="0"
     inkscape:window-width="1366"
     inkscape:window-height="704"
     inkscape:window-x="0"
     inkscape:window-y="27"
     inkscape:window-maximized="1"
     units="px" />
  <metadata
     id="metadata2514">
    <rdf:RDF>
      <cc:Work
         rdf:about="">
        <dc:format>image/svg+xml</dc:format>
        <dc:type
           rdf:resource="http://purl.org/dc/dcmitype/StillImage" />
        <dc:title></dc:title>
      </cc:Work>
    </rdf:RDF>
  </metadata>
  <g
     inkscape:groupmode="layer"
     id="layer2"
     inkscape:label="Background"
     transform="translate(4.2218515e-7,-295.3125)" />
  <g
     inkscape:label="Layer 1"
     inkscape:groupmode="layer"
     id="layer1"
     transform="translate(58.068251,-291.35654)">
    <g
       id="g823"
       transform="matrix(0.11847015,0,0,0.11847015,-51.188897,291.8252)">
      <g
         style="fill:#37c837"
         transform="matrix(0.99891854,0,0,1.0256448,88.90601,-307.19512)"
         id="g54">
        <path
           d="m 20.564951,295.65709 c -92.610003,0 -167.698331,73.13164 -167.698331,163.32845 0,90.19678 75.088328,163.29535 167.698331,163.29535 92.610079,0 167.664349,-73.10597 167.664349,-163.29535 0,-90.19681 -75.06194,-163.32845 -167.664349,-163.32845 z"
           style="display:inline;fill:#37c837;fill-opacity:1;stroke:none;stroke-width:0.8394146"
           id="path6735"
           inkscape:connector-curvature="0" />
      </g>
      <g
         transform="matrix(0.92987683,0,0,0.92987683,8.1924219,8.346946)"
         id="g822">
        <path
           inkscape:connector-curvature="0"
           d="m 199.89962,260.01166 c 0.46949,-0.20283 0.76476,-0.49138 0.45443,-1.07944 -18.21557,-7.17807 -39.80562,-13.23479 -46.23701,-33.83791 -0.7667,-2.47893 -0.77404,-5.00919 -0.44914,-7.55933 1.12132,-5.31212 1.12017,-5.30575 6.15616,-4.23618 0.47906,0.10174 0.95982,0.18175 1.42382,0.34962 1.39838,0.10913 2.23889,0.68563 2.03017,2.44119 -0.10827,2.71442 1.0483,5.46769 3.12223,6.85701 3.2449,-0.11726 4.21907,2.23811 4.85604,5.09392 0.32797,1.47043 1.11456,2.76436 1.8584,4.04881 5.21368,8.17265 10.19159,14.1077 17.56843,17.07027 15.50841,5.34315 28.9783,2.70109 41.53098,-1.18948 0.83015,-0.53707 1.95849,-0.71089 2.14426,-2.04264 -0.27686,-0.69187 -0.86963,-0.78477 -1.4505,-0.90362 -13.15987,0.68834 -25.77785,2.05622 -36.0954,-6.41435 -0.58937,-0.43637 -1.06147,-1.04032 -1.66339,-1.41322 0.0203,0.0245 0.0932,0.0551 0.11173,0.0731 13.09111,13.13152 55.44013,7.3156 63.92862,-5.17474 1.12631,-1.47526 4.19833,-6.26861 2.7078,-7.32601 -9.63914,9.78422 -23.56358,9.02843 -32.64746,6.07785 16.46055,-0.63946 27.81927,-3.01213 37.23891,-13.6628 0.52089,-0.58891 1.12403,-1.17275 1.26524,-1.9786 -0.003,-0.21215 -0.0507,-0.41222 -0.13901,-0.60176 -0.25752,-0.36816 -0.61775,-0.47901 -1.02235,-0.48107 -2.93939,1.02695 -5.82475,2.75085 -8.93239,3.23232 -9.87071,1.52927 -12.32054,1.95235 -29.8917,-1.23986 8.68016,2.83898 29.73753,2.233 29.1901,-2.914 -8.95659,1.47322 -19.407,1.20472 -27.24806,-2.46251 -3.04464,-1.44139 -5.63777,-3.70185 -8.46383,-5.57013 -10.45393,-6.91089 -20.59672,-5.39818 -29.91318,-4.09581 -3.19812,0.44707 -6.15112,2.07919 -8.97832,3.80049 -1.21588,0.74027 -2.4391,1.02269 -3.82057,0.53871 -1.8839,-0.66001 -3.7441,-0.11046 -5.59603,0.30697 -0.60945,0.20368 -1.22591,0.3836 -1.84548,0.55132 -0.88105,0.34708 -1.66505,0.90441 -2.49812,1.35399 -0.88327,0.49911 -1.78835,0.29083 -2.67635,0.0579 -2.11699,-0.5555 -4.25777,-0.98724 -6.38743,-1.47622 -1.36893,-0.31431 -1.68502,-1.09655 -1.19717,-2.48091 0.89993,-2.55368 2.5855,-4.91126 2.66927,-7.67842 0.28705,-9.4852 -5.07106,-12.68298 -10.90516,-16.92139 11.51054,-0.0473 24.77498,-3.32458 31.30387,-11.45075 4.93884,-6.14713 7.07888,-14.68021 13.4465,-18.33611 11.3677,-6.52662 28.02178,-3.94841 38.48978,-3.1465 10.58749,0.81105 25.1962,-0.50272 29.72586,-11.991 0.0246,-0.0621 0.12684,-0.0813 0.15783,-0.14907 1.31884,-2.88338 2.03001,-9.70771 0.5901,-9.63208 -3.29042,5.70544 -6.98154,10.90747 -12.39766,13.01883 -19.20405,7.48637 -41.94718,-13.04039 -61.04049,-5.22896 -12.34141,5.0491 -13.89553,29.59874 -27.53595,30.78709 -23.40663,2.03922 -30.75657,-22.24157 -48.78495,-26.34217 -0.64121,-0.0924 -0.19189,-0.43592 -0.34411,-0.17741 -0.0325,0.0553 0.0223,0.11103 0.16601,0.116 10.66263,0.0987 21.96397,2.10196 30.37629,7.45397 6.87202,4.37207 11.95613,10.78498 20.35931,9.832 8.77403,-0.99503 15.48627,-18.84686 20.68488,-28.57881 -6.98761,1.80272 -10.31711,18.17265 -18.71821,20.15075 -13.03663,3.06953 -16.22491,-8.31351 -25.9087,-14.33822 -7.15227,-4.4021 -13.15308,-4.12016 -20.07944,-4.14844 7.34752,-0.58186 16.08573,0.44938 22.11014,3.02048 7.71815,3.61682 15.05581,13.72978 23.16726,12.40601 1.39281,-0.71571 3.27184,-0.69607 3.71947,-2.85673 -15.53311,-2.47227 -18.99767,-18.3245 -36.87651,-18.46487 -23.67849,-0.18587 -32.710755,-1.64934 -42.342825,-1.93311 11.931775,-0.42802 23.637145,1.30948 31.970105,1.1016 10.38585,-1.91065 4.60705,-1.49858 -3.17856,-2.42237 -10.95645,-1.30003 -25.165955,-4.79002 -25.165955,-4.79002 -2.25069,-0.72548 -2.71458,-1.41947 -3.36809,-3.76564 -0.17902,-4.57753 -2.672,-13.499334 -0.11515,-16.844485 1.36198,-1.58592 4.82428,-0.51839 8.1427,-0.0274 3.318435,0.490979 8.215015,2.037281 14.167585,5.604837 -3.8124,-10.306096 -8.98874,-13.954716 -16.221655,-16.755948 -5.54942,-2.149228 -12.86304,-7.086258 -18.01339,-4.678399 -5.15039,2.40787 -6.16168,9.410621 -9.53841,14.731841 -3.37676,5.321205 -5.45956,11.525194 -5.43424,17.464024 v 0 0 0 0 c -0.33819,0.42906 -0.91618,0.0485 -1.2656,0.43962 -12.23493,-0.41115 -24.477307,-0.34852 -36.124078,-0.68705 0.0746,1.39909 0.807382,1.82818 1.72424,2.07612 l -0.006,-0.003 c 9.71759,3.35218 22.626838,1.76338 32.060118,5.22597 0.53213,0.20198 1.08454,0.35249 1.57772,0.65786 0,0 0.69848,1.05325 -0.32331,1.84474 -1.02181,0.7915 -4.04862,-0.6959 -6.11439,1.61107 -2.06579,2.30697 -5.67231,11.4311 -2.31124,13.15717 0,0 4.51276,-4.80435 7.23172,-3.64651 0.27084,0.15178 0.48719,0.36585 0.63519,0.65823 0.57726,2.4813 2.37437,5.02965 2.96236,7.50601 0.6184,2.25019 -3.56973,4.81279 -2.69888,6.62878 1.25355,2.1465 5.53204,1.27147 6.93734,0.3026 1.90303,-1.33985 2.05244,-1.23729 3.0445,0.98453 0.70993,1.59007 0.88053,3.1139 0.2726,4.83506 -4.07811,11.31 22.3622,24.35273 11.52492,27.36678 -22.51896,6.95291 -29.53103,-8.65291 -34.3753,-5.50319 -1.14378,1.11802 0.0166,2.40323 0.003,3.77955 -1.30121,0.28558 -2.65141,-0.0328 -3.93765,0.29692 -0.62725,0.19711 -1.18028,0.44549 -1.67105,0.82629 -1.32592,1.71986 -2.870979,3.05664 -4.65168,2.46284 l -91.620822,-21.25048 c -0.751586,-0.0642 -1.230376,-0.27139 -1.658705,0.45739 l 0.0045,-0.009 c -1.153471,2.15471 -0.08788,4.98365 1.398665,5.32946 l 93.979184,21.78013 c 1.992678,1.1793 3.798448,2.4095 5.775868,3.47808 0.82485,0.40488 1.66161,0.76773 2.56108,0.93464 0.65078,0.0576 1.2954,0.0647 1.90416,-0.24732 0.44506,-0.28137 0.7973,-0.62972 0.76236,-1.02127 1.658,2.47187 -0.10845,4.44505 -0.48847,6.76218 -1.79315,15.2181 7.95599,28.25948 15.61702,38.49119 1.20038,1.59986 2.38882,3.22702 3.75875,4.67665 0.43155,0.38653 0.92112,0.94889 1.46239,0.45407 0.57596,-0.52652 0.22392,-1.29475 0.0248,-1.92016 -6.75473,-14.41577 -9.08269,-28.95377 -4.98689,-40.45029 1.56563,-2.6576 3.37281,-3.62469 5.70548,-3.18753 1.49813,0.28073 2.18994,1.11802 2.12156,2.77794 5.61461,38.21783 12.24086,60.92436 48.644435,74.49207 0.39651,0.19907 0.53158,-0.0739 0.63236,-0.40957 -0.32454,-1.5375 -1.66661,-2.15305 -2.51226,-3.21713 -7.26614,-8.40711 -14.4723,-17.85616 -11.14617,-28.83661 0.54355,-1.71755 0.8626,-1.76042 1.84756,-0.31834 8.99555,13.87009 21.47136,11.91934 30.07699,20.81775 4.18154,4.32379 7.94748,10.80222 10.00594,15.34266 0.0972,0.16663 0.22385,0.30133 0.37296,0.4132 6.18999,-3.29343 3.73198,-22.59489 1.60739,-27.32866 -3.21271,-7.97447 -15.59506,-12.88303 -19.85373,-21.13591 9.32687,8.97885 17.39914,17.89224 26.74228,24.47005 11.36873,8.00391 26.87447,9.34054 39.0579,9.09182 z"
           id="path7957"
           style="fill:#ffffff;stroke:none;stroke-width:3;stroke-linecap:round;stroke-linejoin:round;stroke-miterlimit:4;stroke-dasharray:none;stroke-opacity:1" />
        <path
           inkscape:connector-curvature="0"
           id="path7959"
           d="m 12.954648,109.74853 c -13.70018076,1.50938 -10.8490308,21.10119 -17.5837218,24.43898 -1.995908,0.8279 -3.22798,-0.32789 -3.442009,-0.38668 1.362,0.12765 2.48081,-0.49211 2.409549,-0.572 -0.402389,0.12739 -3.07046,-1.18096 -3.342129,-1.64804 1.14145,0.44597 2.2792,-0.0615 2.18113,-0.14851 -0.94257,-0.21824 -3.9138312,-1.34845 -3.9991512,-1.71407 1.1958002,0.31707 2.1609212,0.30158 2.9421402,0.0209 -0.884258,-0.27189 -3.6316102,-1.35749 -3.9858792,-2.01571 0.20523,0.0443 1.71667,-0.17112 1.798601,-0.34158 -1.448052,-0.5875 -3.054491,-1.00629 -4.41401,-1.77396 0.98256,0.13615 0.947529,-0.32284 1.401678,-0.49578 -3.035519,-0.58539 -4.237278,-2.28561 -4.237278,-2.28561 0.52533,0.65277 1.902709,-0.0243 1.907169,-0.12851 -1.48387,-0.6222 -3.669903,-2.75199 -5.507931,-3.38927 0.854342,0.0917 1.956025,-0.14783 2.125329,-0.31337 -5.219867,-3.87227 -13.776733,-3.03207 -15.82767,1.86359 -0.551491,1.31651 -1.722995,6.36569 -1.968585,6.38668 -0.287387,0.0246 -1.317216,-0.2444 -0.889565,-0.74822 0.119832,-0.0931 -1.14808,0.17517 -1.347921,0.0553 -0.499562,-0.29956 0.184884,-0.5859 0.184884,-0.5859 -0.832471,0.1036 -1.861792,0.14909 -0.839358,-0.48189 -1.102811,-0.0343 -1.207092,0.19172 -1.559927,-0.0947 1.187309,-1.4086 1.746956,-3.88321 0.678039,-3.06146 -0.362401,0.46078 -1.519287,1.01981 -1.811866,1.15687 0.812884,-0.48786 2.065669,-3.36069 0.198684,-1.8677 -1.961275,1.56834 -5.017657,2.28557 -6.718554,4.33821 -0.908586,1.09645 -1.760305,2.45112 -1.610106,3.95664 0.06333,0.63452 -0.03373,1.35593 -0.212005,1.6024 -0.459374,0.62534 -0.0484,1.80915 0.774304,2.23751 0.342505,0.17928 0.564022,0.2448 0.866536,0.19101 -0.0028,0 -0.02145,0.0135 -0.02145,0.0135 0.161967,0.14396 0.827588,0.82809 0.827588,0.82809 0,0 -0.05371,-0.8463 -0.07171,-1.0263 -0.0028,-0.0248 0.0093,-0.0526 0.02709,-0.0809 0.01665,-0.007 0.02924,-0.0127 0.04609,-0.0198 0.910815,-0.40549 1.040525,-0.40482 1.430358,0.0166 0.587954,0.63698 0.465244,0.94232 -0.498291,1.24189 -1.150112,0.35744 -1.212399,0.52787 -0.438884,1.20247 0.920778,0.80354 1.550473,0.67186 2.43411,-0.50752 1.140997,-1.95764 2.988508,0.29757 2.702476,2.42084 -0.02961,1.75571 0.618885,1.72249 1.105154,2.4095 -0.300539,-1.10267 -0.193633,-1.70959 -0.05735,-1.73865 -0.02842,0.19394 0.473146,1.83331 1.253688,3.07015 -0.01157,-0.41162 0.06539,-1.28374 0.143905,-1.29153 0.368469,-0.31951 0.286963,2.02449 1.183527,2.56828 0,0.0856 0.02862,-1.40208 0.294443,-1.24652 -0.06189,0.31016 0.449156,2.01664 0.707756,2.01574 -0.01157,-0.33525 0.08901,-0.57867 0.346202,-0.69393 0.171394,0.37079 0.167245,0.82468 0.470662,1.06881 0.536533,0.43168 1.097676,0.31453 2.025425,0.40868 1.527979,0.15452 2.159084,2.60263 2.122226,8.22825 -0.03186,4.77796 0.780062,6.88529 -1.378627,7.92869 -2.071455,1.25806 -1.660822,2.91979 -0.602262,3.7467 4.185665,1.21717 6.238551,-3.16797 5.780361,-5.74094 0.04366,-1.32286 -0.162671,-4.6837 0.06502,-5.13452 1.152935,3.01032 2.577338,6.09261 0.98789,8.7481 -0.600937,0.34191 -1.427366,1.06251 -1.495411,1.85335 -0.204978,2.38182 3.204125,3.54121 5.113557,0.33599 2.13089,-2.5343 0.422939,-6.36555 0.295513,-8.79114 0.07002,-3.74904 -0.840343,-6.98088 -1.51796,-10.70387 -0.0065,-0.22894 0.876922,-0.46259 1.170686,0.0753 0.589733,-0.24386 -0.357124,-1.84785 -1.180422,-2.05517 -0.01495,-0.0332 1.237292,0.35363 1.445204,-0.13416 -1.104506,-0.81856 -1.359069,-1.34615 -1.359154,-1.34637 1.307986,-0.0334 1.13651,-0.11097 1.692034,-0.21455 -0.332711,-0.0421 -1.770832,-0.76101 -1.467215,-0.91827 0.464847,0.32888 1.495184,0.58697 1.311005,0.3175 -0.167187,-0.22337 -0.81689,-1.06129 -0.481385,-0.84138 0.771681,0.32924 0.677672,0.57968 1.956845,0.46758 -0.05853,-0.0752 -0.300173,-0.63723 -0.171564,-0.79485 0,0 0.540372,0.47258 1.758611,1.014 0.05983,-0.61553 0.692912,-0.72077 1.314649,-0.48085 3.246411,3.90192 2.622381,12.95518 4.25115,15.79846 2.14889,4.16836 7.3111596,4.44576 7.7560806,8.43875 0.16555,1.65939 -0.27037,3.07326 -0.896221,2.90116 -2.4518586,-0.3302 -4.5918986,2.23492 -0.75847,3.93571 0.7664,0.34002 3.243659,0.29644 4.629089,-0.3954 0.7572,-0.37812 1.743342,-1.38393 1.692571,-1.89281 0.20015,-0.45909 0.425339,-0.42045 0.90441,-0.48293 -0.31369,-0.31522 -0.701458,-0.80194 -1.0852,-1.12717 -1.4e-4,-0.0147 -0.003,-0.33486 1.14613,0.065 -1.06096,-1.22177 -1.926669,-3.06623 -1.25572,-3.45375 0.35134,-0.0351 0.442301,-0.37846 0.334941,-0.73234 0.207719,0.19191 0.895329,0.64081 1.312559,0.25962 -0.55739,-0.49835 -1.641909,-1.28225 -1.507681,-1.98292 -0.0347,-0.14865 0.991222,-0.40818 1.429311,-0.37948 -0.5671,-0.1863 -2.343258,-0.90035 -2.065359,-1.38018 0,0 1.9054,-0.3022 2.094029,-0.7011 -2.520439,-0.56374 -2.956949,-1.33765 -2.956949,-1.33765 -0.009,-0.0861 1.411698,-0.17063 1.84875,-0.33288 -0.126352,-0.15265 -2.816122,-0.40036 -2.894531,-0.73849 -0.338101,-0.16654 1.969489,-0.0975 2.028499,-0.37744 -1.898359,0.0427 -6.249238,-3.97897 -5.078698,-3.94998 l -0.919281,-0.90187 c -0.23055,-0.27935 1.36802,1.08283 2.621049,0.41687 -1.200988,-0.91833 -2.319808,-1.62868 -2.28814,-2.61183 0.12124,0.56862 0.990912,0.92205 2.571861,0.17464 -2.438929,-1.05179 -2.03118,-2.62659 -1.893311,-2.68455 1.188742,0.64273 1.349412,0.16617 1.93584,0.15313 -0.719468,-0.30071 -1.680519,-1.09866 -2.021358,-2.01673 0.978439,0.2987 2.364999,0.32825 2.364999,0.32825 -1.04933,-0.46157 -1.255861,-1.69576 -1.43855,-2.4172 1.056161,0.84409 1.327301,0.53362 2.232811,0.40151 -0.460651,-0.11991 -1.331082,-1.50229 -1.06929,-2.02031 1.71809,2.02319 8.13336,1.44543 8.023918,0.85265 -0.92308896,0.0289 -1.50714896,-0.47216 -1.50714896,-0.47216 0,0 3.02996096,0.0265 4.49949096,-1.48878 -0.95473,0.11295 -1.505511,0.19468 -1.652071,-0.37998 1.561991,-0.32075 3.446441,-1.05828 4.667451,-2.80334 -2.00841,0.88956 -2.127221,0.38495 -2.10326,0.32828 1.674788,-0.85361 3.825308,-2.93094 5.2559184,-5.59907 -0.399769,0.31302 -3.4086084,1.41475 -3.8266074,0.75641 2.545088,0.08 5.2586784,-2.90381 5.4382594,-4.88156 -2.3176714,1.96596 -2.5063294,1.06011 -2.5063294,1.06011 0,0 3.1924204,-2.66864 3.3856404,-3.08859 0,0 -2.429611,0.73838 -2.053601,0.41634 0.484979,-0.8975 1.236409,-1.32893 2.65534,-1.61268 -0.116811,-0.64197 -1.304772,-1.75373 -2.400321,-1.49846 0.261001,-1.1481 2.33013,-0.55868 2.868911,-0.11063 0,0 -0.651531,-2.06705 -1.72842,-2.42798 0.01371,-0.55042 2.384169,-0.0943 2.888891,0.57615 0.121488,-1.43428 -1.845803,-2.79589 -2.119681,-2.71732 -0.114191,-0.82809 2.41899,-0.33133 2.220579,-0.43174 0.0788,-0.80405 -2.11855,-1.70801 -2.2554,-1.61061 0.12982,-0.30991 1.77724,0.013 2.042861,0.0819 -0.449691,-0.92783 -2.00274,-1.66643 -2.33629,-1.45084 0.0562,-0.36082 2.07408,-0.64169 2.07408,-0.64169 -0.0286,-0.28697 -2.023139,-1.0085 -2.22055,-0.76767 0.175098,-0.35764 2.26678,-0.7239 2.09456,-0.70672 -0.15132,0.015 -0.51249,-1.00364 -2.080741,-0.91262 0.0241,-0.36525 2.142881,-0.81401 1.531231,-0.71131 -0.622901,-0.43762 -2.287119,0.0323 -2.287119,0.0323 -0.477801,-0.1839 0.914889,-1.21209 0.964319,-1.15997 z m 2.26051,6.31853 c 0.0021,0.003 0.004,0.006 0.005,0.01 0.0601,0.01 0.0428,0.003 -0.005,-0.01 z m -16.8667908,45.04685 c 0.112861,0.037 0.19462,0.0606 0.18438,0.0492 -0.0277,-0.031 -0.0988,-0.0436 -0.18438,-0.0492 z M -22.506274,140.42366 c 0.0087,0.0113 0.01355,0.013 0.01241,0 -0.0048,0 -0.0076,0 -0.01241,0 z"
           style="fill:#ffffff;fill-rule:evenodd;stroke:none;stroke-width:3;stroke-linecap:round;stroke-linejoin:round;stroke-miterlimit:4;stroke-dasharray:none;stroke-opacity:1" />
      </g>
    </g>
  </g>
</svg>
